<svg version="1.1" xmlns="http://www.w3.org/2000/svg" xmlns:xlink="http://www.w3.org/1999/xlink" viewBox="0 0 1000 1000">
<g><path d="M889.5,482.3c-24-9.2-56.6-14.9-91.3-16.5c62.1-26.3,96.9-85.1,77.5-131.3c-19.4-46.4-86.1-62.9-148.5-36.8c-16,6.6-34.7,17.4-53.2,30.5c30.8-32.9,55.9-70,67.5-100.4c31-80.7-9.4-171.5-90.1-202.5c-80.7-31-171.6,9.5-202.5,90.2c-6.2,15.9-10.8,35.9-13.6,57.6c-28.8-52.9-81.8-81-124.5-63.2c-46.4,19.4-62.9,86.1-36.7,148.5c1.8,4.2,3.9,8.7,6.1,13.2c-20-14.2-39.9-25.6-57.4-32.4c-80.7-31-171.5,9.5-202.5,90.1c-31,80.8,9.5,171.5,90.1,202.5c17.9,6.8,40.6,11.6,65.4,14.5c-61.1,26.6-95,84.6-75.9,130.5c19.4,46.4,86.1,62.9,148.5,36.8c1.1-0.5,2.1-1,3.2-1.5c-15.2,20.9-27.1,41.6-34.2,59.9c-31,80.8,9.5,171.6,90.1,202.6c80.7,30.9,171.5-9.5,202.5-90.1c10.2-26.3,16-63,16.9-101.6c1.9,5.9,3.9,11.5,6,16.5c26.1,62.5,85.1,97.5,131.5,78.1c46.4-19.4,62.9-86,36.8-148.4c-0.1-0.2-0.2-0.5-0.4-0.7c26,21,53,37.7,76.1,46.6c80.7,30.9,171.6-9.5,202.6-90.1C1010.5,604.2,970.1,513.4,889.5,482.3z M736.3,319.2c46.4-19.4,96-7.1,110.4,27.3c14.4,34.5-11.6,78.4-58.1,97.9c-34,14.2-106.1,26.6-147.8,18.6c-1.8-6.2-3.8-12.3-6.6-18.3c-4.8-10.6-10.8-20.4-17.6-29.3C638.3,379.4,700.9,334,736.3,319.2z M486.4,129.9c23.1-60,90.6-90.1,150.7-67.1c60,23.1,90,90.6,67.1,150.6c-19.2,49.8-91.9,138.9-150.5,154.7c-15.2-5.9-31.5-9-48.1-9.6C460.8,318.1,465.5,184.5,486.4,129.9z M323.1,139c34.6-14.4,78.5,11.6,97.9,58.1c3.9,9.5,7.7,21.8,11,35.6c0.5,27.7,3.8,55.6,10.2,81c0,30.3-5.4,55.3-20.2,61.5c-34.5,14.5-106.7-79.3-126.2-125.8C276.3,202.9,288.6,153.4,323.1,139z M124.9,494.3c-60-23-90.1-90.6-67-150.6c23-60,90.6-90.1,150.6-67c58.3,22.3,170,118,155.8,178.5c-0.9,2.7-1.9,5.4-2.7,8.2C335.1,520.6,184.1,517,124.9,494.3z M472.7,870.1c-23,60-90.6,90-150.7,67c-60-23-90.1-90.6-67.1-150.6c21.6-56.3,111.9-163.1,172.5-157.2c8.2,4.9,16.9,8.8,25.8,11.9C498.2,681.7,493.7,815.2,472.7,870.1z M400.3,548.9c-24.7-55.7,0.3-121.2,56-145.9c55.7-24.8,121.2,0.2,146,56c23.9,53.9,0.9,116.6-51.2,143.1H551c-0.3,0.1-0.5,0.4-0.9,0.6c-1.4,0.6-2.5,1.6-3.9,2.2C490.5,629.8,425,604.6,400.3,548.9z M652.4,848.7c-34.5,14.3-78.3-11.7-97.8-58.2c-13.9-33.3-26.1-103-19.1-145.1c8.5-2,16.9-4.8,25.1-8.3c9.9-4.4,18.9-9.8,27.2-15.9c35.3,23.7,77.8,82.9,92,117C699.2,784.6,686.9,834.1,652.4,848.7z M942.1,670.4c-23.1,60-90.6,90.1-150.6,67.1c-57.9-22.3-169-117.2-156-177.8c1.5-3.7,2.9-7.4,4.1-11.2c29.4-55,177.1-51.2,235.5-28.8C935,542.8,965.2,610.5,942.1,670.4z"/></g>
</svg>